name Walk4.mot
datacolumns 19
datarows 17
range 3.40000000 3.41600000
endheader

                time	   L_ground_force_vx	   L_ground_force_vy	   L_ground_force_vz	   L_ground_force_px	   L_ground_force_py	   L_ground_force_pz	   R_ground_force_vx	   R_ground_force_vy	   R_ground_force_vz	   R_ground_force_px	   R_ground_force_py	   R_ground_force_pz	   L_ground_torque_x	   L_ground_torque_y	   L_ground_torque_z	   R_ground_torque_x	   R_ground_torque_y	   R_ground_torque_z	
          3.40000000	          0.00000000	          0.00000000	          0.00000000	          0.00000000	          0.00000000	          0.00000000	          0.00000000	          0.00000000	          0.00000000	          0.00000000	          0.00000000	          0.00000000	          0.00000000	          0.00000000	          0.00000000	          0.00000000	          0.00000000	          0.00000000	
          3.40100000	          0.00000000	          0.00000000	          0.00000000	          0.00000000	          0.00000000	          0.00000000	          0.00000000	          0.00000000	          0.00000000	          0.00000000	          0.00000000	          0.00000000	          0.00000000	          0.00000000	          0.00000000	          0.00000000	          0.00000000	          0.00000000	
          3.40200000	          0.00000000	          0.00000000	          0.00000000	          0.00000000	          0.00000000	          0.00000000	          0.00000000	          0.00000000	          0.00000000	          0.00000000	          0.00000000	          0.00000000	          0.00000000	          0.00000000	          0.00000000	          0.00000000	          0.00000000	          0.00000000	
          3.40300000	          0.00000000	          0.00000000	          0.00000000	          0.00000000	          0.00000000	          0.00000000	          0.00000000	          0.00000000	          0.00000000	          0.00000000	          0.00000000	          0.00000000	          0.00000000	          0.00000000	          0.00000000	          0.00000000	          0.00000000	          0.00000000	
          3.40400000	          0.00000000	          0.00000000	          0.00000000	          0.00000000	          0.00000000	          0.00000000	          0.00000000	          0.00000000	          0.00000000	          0.00000000	          0.00000000	          0.00000000	          0.00000000	          0.00000000	          0.00000000	          0.00000000	          0.00000000	          0.00000000	
          3.40500000	          0.77824757	         13.48085835	         -6.28141771	         -0.36276445	          0.00000000	         -0.01684950	          0.00000000	          0.00000000	          0.00000000	          0.00000000	          0.00000000	          0.00000000	          0.00000000	         -0.03217484	          0.00000000	          0.00000000	          0.00000000	          0.00000000	
          3.40600000	          1.39109078	         22.50858978	         -9.13538830	         -0.35665735	          0.00000000	         -0.02434935	          0.00000000	          0.00000000	          0.00000000	          0.00000000	          0.00000000	          0.00000000	          0.00000000	         -0.07335298	          0.00000000	          0.00000000	          0.00000000	          0.00000000	
          3.40700000	          2.12809820	         34.17818504	        -11.97855891	         -0.35221695	          0.00000000	         -0.03009659	          0.00000000	          0.00000000	          0.00000000	          0.00000000	          0.00000000	          0.00000000	          0.00000000	         -0.10251810	          0.00000000	          0.00000000	          0.00000000	          0.00000000	
          3.40800000	          2.97815156	         49.30436257	        -14.72741037	         -0.34912683	          0.00000000	         -0.03388274	          0.00000000	          0.00000000	          0.00000000	          0.00000000	          0.00000000	          0.00000000	          0.00000000	         -0.10617101	          0.00000000	          0.00000000	          0.00000000	          0.00000000	
          3.40900000	          3.98781147	         69.01198020	        -17.42414543	         -0.34708914	          0.00000000	         -0.03586960	          0.00000000	          0.00000000	          0.00000000	          0.00000000	          0.00000000	          0.00000000	          0.00000000	         -0.08127222	          0.00000000	          0.00000000	          0.00000000	          0.00000000	
          3.41000000	          5.22017756	         94.40576123	        -20.09352667	         -0.34575243	          0.00000000	         -0.03674528	          0.00000000	          0.00000000	          0.00000000	          0.00000000	          0.00000000	          0.00000000	          0.00000000	         -0.03475025	          0.00000000	          0.00000000	          0.00000000	          0.00000000	
          3.41100000	          6.67507417	        126.22770449	        -22.65081032	         -0.34483264	          0.00000000	         -0.03707491	          0.00000000	          0.00000000	          0.00000000	          0.00000000	          0.00000000	          0.00000000	          0.00000000	          0.02198875	          0.00000000	          0.00000000	          0.00000000	          0.00000000	
          3.41200000	          8.21996709	        164.37851433	        -24.88919582	         -0.34413398	          0.00000000	         -0.03708008	          0.00000000	          0.00000000	          0.00000000	          0.00000000	          0.00000000	          0.00000000	          0.00000000	          0.08057659	          0.00000000	          0.00000000	          0.00000000	          0.00000000	
          3.41300000	          9.56584186	        207.48628872	        -26.55521875	         -0.34353569	          0.00000000	         -0.03684468	          0.00000000	          0.00000000	          0.00000000	          0.00000000	          0.00000000	          0.00000000	          0.00000000	          0.13944713	          0.00000000	          0.00000000	          0.00000000	          0.00000000	
          3.41400000	         10.30130489	        252.92921473	        -27.45848680	         -0.34297933	          0.00000000	         -0.03647656	          0.00000000	          0.00000000	          0.00000000	          0.00000000	          0.00000000	          0.00000000	          0.00000000	          0.20342176	          0.00000000	          0.00000000	          0.00000000	          0.00000000	
          3.41500000	          9.97982948	        297.42324704	        -27.55704413	         -0.34243923	          0.00000000	         -0.03612678	          0.00000000	          0.00000000	          0.00000000	          0.00000000	          0.00000000	          0.00000000	          0.00000000	          0.28131149	          0.00000000	          0.00000000	          0.00000000	          0.00000000	
          3.41600000	          8.22663081	        337.90297930	        -26.99059274	         -0.34189629	          0.00000000	         -0.03591659	          0.00000000	          0.00000000	          0.00000000	          0.00000000	          0.00000000	          0.00000000	          0.00000000	          0.38057613	          0.00000000	          0.00000000	          0.00000000	          0.00000000	
